<svg xmlns="http://www.w3.org/2000/svg" id="mainsvg" width="1160.85771484375" height="612.8000000000001" viewBox="-10 -10 1055.3251953125 558"><defs><marker id="arrow" viewBox="0 0 10 10" refX="10" refY="5" markerWidth="5" markerHeight="5" orient="auto-start-reverse" fill="black"><path stroke="black" d="M 0 0 L 10 5 L 0 10 z"/></marker><marker id="Many" viewBox="0 0 16 16" refX="15" refY="8" markerWidth="15" markerHeight="15" orient="auto-start-reverse"><path stroke="black" d="M0 8H15M15 15L2 8L15 1" fill="none"/></marker><marker id="ZeroOrOne" viewBox="0 0 16 10" refX="15" refY="5" markerWidth="21" markerHeight="21" orient="auto-start-reverse"><path d="M9 5H16" stroke="black" fill="none"/><circle cx="5" cy="5" r="4.5" stroke="black" fill="#fff"/><path d="M12 0L12 10" stroke="black" fill="none"/></marker><marker id="OneOnlyOne" viewBox="0 0 10 14" refX="10" refY="7" markerWidth="13" markerHeight="13" orient="auto-start-reverse"><path d="M0 7H4M4 7H7M4 7V0M4 7V14M7 7H10M7 7V0M7 7V14" stroke="black" fill="none"/></marker><marker id="OneOrMany" viewBox="0 0 16 16" refX="15" refY="8" markerWidth="15" markerHeight="15" orient="auto-start-reverse"><path stroke="black" d="M2 1V15M2 8L15 15M2 8L15 1M2 8H0M2 8H15" fill="none"/></marker><marker id="ZeroOrMany" viewBox="0 0 25 16" refX="23" refY="8" markerWidth="25" markerHeight="25" orient="auto-start-reverse"><path d="M13 8H27M27 15L14 8L27 1" stroke="black" fill="none"/><path d="M13.5 7.5C13.5 10.7795 10.6254 13.5 7 13.5C3.37461 13.5 0.5 10.7795 0.5 7.5C0.5 4.22054 3.37461 1.5 7 1.5C10.6254 1.5 13.5 4.22054 13.5 7.5Z" stroke="black" fill="#fff"/></marker><marker id="aggregation" viewBox="0 0 10 6" refX="9.3" refY="2.8" markerWidth="23" markerHeight="15" orient="auto-start-reverse"><path stroke="black" fill="#fff" stroke-width="0.7" d="M1.01614 2.82609L5 0.574341L8.98386 2.82609L5 5.07783L1.01614 2.82609Z"/></marker><marker id="composition" viewBox="0 0 10 6" refX="9.7" refY="2.8" markerWidth="18" markerHeight="15" orient="auto-start-reverse"><path stroke="black" fill="black" d="M1.01614 2.82609L5 0.574341L8.98386 2.82609L5 5.07783L1.01614 2.82609Z"/></marker><marker id="implementation" viewBox="0 0 8 10" refX="8" refY="5" markerWidth="20" markerHeight="20" orient="auto-start-reverse"><path stroke="black" fill="#fff" stroke-width="0.7" d="M0.750001 1.10289L7.5 5L0.750001 8.89712L0.750001 1.10289Z"/></marker><marker id="dependency" viewBox="0 0 12 12" refX="11" refY="6" markerWidth="12" markerHeight="11" orient="auto-start-reverse"><path stroke="black" fill="#fff" d="M1 5.93162H10.886M10.886 5.93162L1 0.5M10.886 5.93162L1 11"/></marker><marker id="inheritance" viewBox="0 0 8 10" refX="8" refY="5" markerWidth="20" markerHeight="20" orient="auto-start-reverse"><path stroke="black" fill="#fff" stroke-width="0.7" d="M0.750001 1.10289L7.5 5L0.750001 8.89712L0.750001 1.10289Z"/></marker><marker id="association" viewBox="0 0 12 12" refX="11" refY="6" markerWidth="12" markerHeight="11" orient="auto-start-reverse"><path stroke="black" d="M1 5.93162H10.886M10.886 5.93162L1 0.5M10.886 5.93162L1 11"/></marker><filter id="shadowOLD" x="-50%" y="-50%" width="250%" height="250%"><feDropShadow flood-color="black" flood-opacity="0.3" dx="1" dy="1" stdDeviation="2"> </feDropShadow></filter><filter id="shadow-path" filterUnits="userSpaceOnUse" x="-10" y="-10" width="1055.3251953125px" height="548px"><feDropShadow flood-color="black" flood-opacity="0.1" dx="1" dy="1" stdDeviation="1"> </feDropShadow></filter><filter id="shadow" filterUnits="userSpaceOnUse" x="-10" y="-10" width="1155.3251953125px" height="648px"><feDropShadow flood-color="black" flood-opacity="0.1" dx="1" dy="1" stdDeviation="1"> </feDropShadow></filter></defs><rect x="-10" y="-10" width="1055.3251953125" height="548" fill="#fff"/><g transform="translate(0, 0)"><rect width="76.4609375" height="52" stroke="black" fill="white" stroke-width="2" transform="translate(0, 0)" rx="3"/><text fill="black" font-size="16" font-weight="normal" transform="translate(8, 17)" alignment-baseline="middle" font-family="Arial"><tspan x="0" dy="16" font-family="Arial" font-size="16" font-weight="normal">Terminal</tspan></text></g><g transform="translate(217.2880859375, 0)"><rect width="116.4765625" height="52" stroke="black" fill="white" stroke-width="2" transform="translate(0, 0)" rx="3"/><text fill="black" font-size="16" font-weight="normal" transform="translate(8, 8)" alignment-baseline="middle" font-family="Arial"><tspan x="0" dy="16" font-family="Arial" font-size="16" font-weight="normal">Main Program</tspan><tspan x="0" dy="16" font-family="Arial" font-size="16" font-weight="normal"> in app.rb</tspan></text></g><g transform="translate(417.2392578125, 0)"><rect width="128.9453125" height="52" stroke="black" fill="white" stroke-width="2" transform="translate(0, 0)" rx="3"/><text fill="black" font-size="16" font-weight="normal" transform="translate(8, 8)" alignment-baseline="middle" font-family="Arial"><tspan x="0" dy="16" font-family="Arial" font-size="16" font-weight="normal">BookRepository</tspan><tspan x="0" dy="16" font-family="Arial" font-size="16" font-weight="normal"> class</tspan></text></g><g transform="translate(632.4404296875, 0)"><rect width="165.4375" height="52" stroke="black" fill="white" stroke-width="2" transform="translate(0, 0)" rx="3"/><text fill="black" font-size="16" font-weight="normal" transform="translate(8, 8)" alignment-baseline="middle" font-family="Arial"><tspan x="0" dy="16" font-family="Arial" font-size="16" font-weight="normal">DatabaseConnection</tspan><tspan x="0" dy="16" font-family="Arial" font-size="16" font-weight="normal"> class</tspan></text></g><g transform="translate(861.8876953125, 0)"><rect width="173.4375" height="52" stroke="black" fill="white" stroke-width="2" transform="translate(0, 0)" rx="3"/><text fill="black" font-size="16" font-weight="normal" transform="translate(8, 17)" alignment-baseline="middle" font-family="Arial"><tspan x="0" dy="16" font-family="Arial" font-size="16" font-weight="normal">PostgreSQL database</tspan></text></g><path d="M 38.23046875,92 L 275.5263671875 92" fill="none" stroke="black" stroke-dasharray="none" stroke-width="2" marker-end="url(#arrow)"/><path d="M 275.5263671875,144 L 715.1591796875 144" fill="none" stroke="black" stroke-dasharray="none" stroke-width="2" marker-end="url(#arrow)"/><path d="M 715.1591796875,152 L 729.1591796875 152 L 729.1591796875 192 L 715.1591796875 192" fill="none" stroke="black" stroke-dasharray="none" stroke-width="2" marker-end="url(#arrow)"/><path d="M 275.5263671875,264 L 481.7119140625 264" fill="none" stroke="black" stroke-dasharray="none" stroke-width="2" marker-end="url(#arrow)"/><path d="M 715.1591796875,316 L 948.6064453125 316" fill="none" stroke="black" stroke-dasharray="none" stroke-width="2" marker-end="url(#arrow)"/><path d="M 948.6064453125,368 L 715.1591796875 368" fill="none" stroke="black" stroke-dasharray="none" stroke-width="2" marker-end="url(#arrow)"/><path d="M 715.1591796875,420 L 481.7119140625 420" fill="none" stroke="black" stroke-dasharray="none" stroke-width="2" marker-end="url(#arrow)"/><path d="M 481.7119140625,472 L 275.5263671875 472" fill="none" stroke="black" stroke-dasharray="none" stroke-width="2" marker-end="url(#arrow)"/><path d="M 275.5263671875,508 L 38.23046875 508" fill="none" stroke="black" stroke-dasharray="none" stroke-width="2" marker-end="url(#arrow)"/><path d="M 38.23046875,52 L 38.23046875 528" fill="none" stroke="black" stroke-dasharray="none" stroke-width="2"/><path d="M 275.5263671875,52 L 275.5263671875 528" fill="none" stroke="black" stroke-dasharray="none" stroke-width="2"/><path d="M 481.7119140625,52 L 481.7119140625 528" fill="none" stroke="black" stroke-dasharray="none" stroke-width="2"/><path d="M 715.1591796875,52 L 715.1591796875 528" fill="none" stroke="black" stroke-dasharray="none" stroke-width="2"/><path d="M 948.6064453125,52 L 948.6064453125 528" fill="none" stroke="black" stroke-dasharray="none" stroke-width="2"/><g transform="translate(117.46826171875, 64)"><rect width="78.8203125" height="24" stroke="none" fill="white" stroke-width="0" transform="translate(0, 0)" rx="2"/><text fill="black" font-size="14" font-weight="normal" transform="translate(4, 4)" alignment-baseline="middle" font-family="Arial"><tspan x="0" dy="14" font-family="Arial" font-size="14" font-weight="normal">ruby app.rb</tspan></text></g><g transform="translate(336.86083984375, 100)"><rect width="316.9638671875" height="40" stroke="none" fill="white" stroke-width="0" transform="translate(0, 0)" rx="2"/><text fill="black" font-size="14" font-weight="normal" transform="translate(4, 4)" alignment-baseline="middle" font-family="Arial"><tspan x="0" dy="14" font-family="Arial" font-size="14" font-weight="normal">Opens connection to database</tspan><tspan x="0" dy="14" font-family="Arial" font-size="14" font-weight="normal"> by calling .connect on DatabaseConnection class</tspan></text></g><g transform="translate(735.1591796875, 152)"><rect width="190.109375" height="40" stroke="none" fill="white" stroke-width="0" transform="translate(0, 0)" rx="2"/><text fill="black" font-size="14" font-weight="normal" transform="translate(4, 4)" alignment-baseline="middle" font-family="Arial"><tspan x="0" dy="14" font-family="Arial" font-size="14" font-weight="normal">Connects to database via PG</tspan><tspan x="0" dy="14" font-family="Arial" font-size="14" font-weight="normal"> and stores the connection</tspan></text></g><g transform="translate(322.48486328125, 204)"><rect width="112.2685546875" height="56" stroke="none" fill="white" stroke-width="0" transform="translate(0, 0)" rx="2"/><text fill="black" font-size="14" font-weight="normal" transform="translate(4, 4)" alignment-baseline="middle" font-family="Arial"><tspan x="0" dy="14" font-family="Arial" font-size="14" font-weight="normal">calls .all method </tspan><tspan x="0" dy="14" font-family="Arial" font-size="14" font-weight="normal">on instance of</tspan><tspan x="0" dy="14" font-family="Arial" font-size="14" font-weight="normal"> BookRepository</tspan></text></g><g transform="translate(745.77294921875, 272)"><rect width="172.2197265625" height="40" stroke="none" fill="white" stroke-width="0" transform="translate(0, 0)" rx="2"/><text fill="black" font-size="14" font-weight="normal" transform="translate(4, 4)" alignment-baseline="middle" font-family="Arial"><tspan x="0" dy="14" font-family="Arial" font-size="14" font-weight="normal">Sends query to database</tspan><tspan x="0" dy="14" font-family="Arial" font-size="14" font-weight="normal">via established connection</tspan></text></g><g transform="translate(739.1591796875, 324)"><rect width="185.447265625" height="40" stroke="none" fill="white" stroke-width="0" transform="translate(0, 0)" rx="2"/><text fill="black" font-size="14" font-weight="normal" transform="translate(4, 4)" alignment-baseline="middle" font-family="Arial"><tspan x="0" dy="14" font-family="Arial" font-size="14" font-weight="normal">returns an array of hashes</tspan><tspan x="0" dy="14" font-family="Arial" font-size="14" font-weight="normal">one for each row of the table</tspan></text></g><g transform="translate(505.7119140625, 376)"><rect width="185.447265625" height="40" stroke="none" fill="white" stroke-width="0" transform="translate(0, 0)" rx="2"/><text fill="black" font-size="14" font-weight="normal" transform="translate(4, 4)" alignment-baseline="middle" font-family="Arial"><tspan x="0" dy="14" font-family="Arial" font-size="14" font-weight="normal">returns an array of hashes</tspan><tspan x="0" dy="14" font-family="Arial" font-size="14" font-weight="normal">one for each row of the table</tspan></text></g><g transform="translate(299.5263671875, 428)"><rect width="158.185546875" height="40" stroke="none" fill="white" stroke-width="0" transform="translate(0, 0)" rx="2"/><text fill="black" font-size="14" font-weight="normal" transform="translate(4, 4)" alignment-baseline="middle" font-family="Arial"><tspan x="0" dy="14" font-family="Arial" font-size="14" font-weight="normal">maps array of hashes to</tspan><tspan x="0" dy="14" font-family="Arial" font-size="14" font-weight="normal"> array of Book objects</tspan></text></g><g transform="translate(62.23046875, 480)"><rect width="189.2958984375" height="24" stroke="none" fill="white" stroke-width="0" transform="translate(0, 0)" rx="2"/><text fill="black" font-size="14" font-weight="normal" transform="translate(4, 4)" alignment-baseline="middle" font-family="Arial"><tspan x="0" dy="14" font-family="Arial" font-size="14" font-weight="normal">prints list of books to terminal</tspan></text></g></svg>